<?xml version="1.0" encoding="UTF-8" standalone="no"?>
<svg width="26px" height="33px" viewBox="0 0 26 33" version="1.1" xmlns="http://www.w3.org/2000/svg" xmlns:xlink="http://www.w3.org/1999/xlink">
    <!-- Generator: Sketch 49.2 (51160) - http://www.bohemiancoding.com/sketch -->
    <title>Deplot mark Copy 2</title>
    <desc>Created with Sketch.</desc>
    <defs></defs>
    <g id="Page-1" stroke="none" stroke-width="1" fill="none" fill-rule="evenodd">
        <path d="M-0.612,19.656 C-2.196,19.656 -3.492,18.36 -3.492,16.776 C-3.492,15.156 -2.196,13.896 -0.612,13.896 C0.972,13.896 2.268,15.156 2.268,16.776 C2.268,18.36 0.972,19.656 -0.612,19.656 Z M16.092,3.492 C22.716,3.492 28.692,7.92 28.692,16.092 C28.692,24.264 22.716,28.692 16.092,28.692 L8.1,28.692 L8.1,3.492 L16.092,3.492 Z M16.092,23.94 C20.484,23.94 23.76,20.988 23.76,15.984 C23.76,10.98 20.484,8.244 16.092,8.244 L12.996,8.244 L12.996,23.94 L16.092,23.94 Z" id="Deplot-mark-Copy-2" fill="#0035C8" transform="translate(12.600000, 16.092000) rotate(-90.000000) translate(-12.600000, -16.092000) "></path>
    </g>
</svg>